<svg width="19" height="16" viewBox="0 0 19 16" fill="none" xmlns="http://www.w3.org/2000/svg">
<path d="M6.36478 8.4463C3.23047 9.83624 2.88994 7.05637 1.5 7.05637" stroke="#0D0D0D" stroke-width="1.17057" stroke-linecap="round" stroke-linejoin="round"/>
<path d="M14.0174 14.8956V12.1157C14.1141 11.2451 13.8645 10.3714 13.3224 9.68332C15.4073 9.68332 17.4922 8.29338 17.4922 5.86099C17.5478 4.99228 17.3046 4.13747 16.7973 3.4286C16.9919 2.62939 16.9919 1.79543 16.7973 0.996216C16.7973 0.996216 16.1023 0.996216 14.7124 2.03867C12.8776 1.69118 10.9873 1.69118 9.15262 2.03867C7.76268 0.996216 7.06771 0.996216 7.06771 0.996216C6.85922 1.79543 6.85922 2.62939 7.06771 3.4286C6.56169 4.13461 6.31609 4.99422 6.37275 5.86099C6.37275 8.29338 8.45765 9.68332 10.5426 9.68332C10.2715 10.0239 10.07 10.413 9.95183 10.83C9.83369 11.247 9.79894 11.6848 9.84759 12.1157V14.8956" stroke="#0D0D0D" stroke-width="1.17057" stroke-linecap="round" stroke-linejoin="round"/>
</svg>
        