<svg width="17" height="17" viewBox="0 0 17 17" fill="none" xmlns="http://www.w3.org/2000/svg">
<path d="M14.1683 2.77236C13.4312 2.02777 12.5532 1.43742 11.5855 1.03571C10.6179 0.634012 9.57989 0.429007 8.53216 0.432657C4.14221 0.432657 0.564322 4.01055 0.564322 8.4005C0.564322 9.80753 0.934171 11.1744 1.62563 12.3804L0.5 16.5131L4.72111 15.4035C5.88693 16.0387 7.19749 16.3764 8.53216 16.3764C12.9221 16.3764 16.5 12.7985 16.5 8.40854C16.5 6.27788 15.6719 4.27587 14.1683 2.77236ZM8.53216 15.0256C7.34221 15.0256 6.17638 14.704 5.15528 14.101L4.91407 13.9563L2.40553 14.6156L3.07286 12.1714L2.91206 11.9221C2.25095 10.8664 1.89991 9.64612 1.89899 8.4005C1.89899 4.75024 4.87387 1.77537 8.52412 1.77537C10.293 1.77537 11.9573 2.46683 13.2035 3.7211C13.8206 4.33534 14.3096 5.06595 14.6422 5.87059C14.9748 6.67522 15.1444 7.53787 15.1412 8.40854C15.1573 12.0588 12.1824 15.0256 8.53216 15.0256ZM12.1663 10.0729C11.9653 9.97637 10.9844 9.49396 10.8075 9.4216C10.6226 9.35728 10.494 9.32512 10.3573 9.51808C10.2206 9.71909 9.84271 10.1693 9.73015 10.298C9.61759 10.4347 9.49698 10.4507 9.29598 10.3462C9.09497 10.2497 8.45176 10.0327 7.69598 9.35728C7.101 8.82663 6.70703 8.17537 6.58643 7.97437C6.47387 7.77336 6.57035 7.66884 6.67487 7.56431C6.76332 7.47587 6.87588 7.33115 6.97236 7.21859C7.06884 7.10602 7.10905 7.01758 7.17337 6.88894C7.23769 6.75225 7.20553 6.63969 7.15729 6.54321C7.10904 6.44673 6.70703 5.46582 6.54623 5.06381C6.38543 4.67788 6.21658 4.72612 6.09598 4.71808H5.71005C5.57337 4.71808 5.36432 4.76633 5.1794 4.96733C5.00251 5.16834 4.48794 5.65075 4.48794 6.63165C4.48794 7.61256 5.20352 8.5613 5.3 8.68994C5.39648 8.82663 6.70703 10.8367 8.701 11.697C9.17538 11.906 9.54523 12.0266 9.83467 12.1151C10.309 12.2678 10.7432 12.2437 11.0889 12.1955C11.4749 12.1392 12.2709 11.7131 12.4317 11.2467C12.6005 10.7804 12.6005 10.3864 12.5442 10.298C12.4879 10.2095 12.3673 10.1693 12.1663 10.0729Z" fill="black"/>
</svg>
