<svg width="17" height="16" viewBox="0 0 17 16" fill="none" xmlns="http://www.w3.org/2000/svg">
<path d="M11.7333 -0.00163269H5.26594C4.00225 -0.000147636 2.79076 0.502564 1.89727 1.3962C1.00378 2.28984 0.501273 3.50142 0.5 4.76511L0.5 11.2324C0.501485 12.4961 1.0042 13.7076 1.89784 14.6011C2.79147 15.4946 4.00305 15.9971 5.26674 15.9984H11.7341C12.9977 15.9969 14.2092 15.4942 15.1027 14.6005C15.9962 13.7069 16.4987 12.4953 16.5 11.2316V4.76431C16.4985 3.50062 15.9958 2.28912 15.1022 1.39564C14.2085 0.502147 12.9969 -0.00036011 11.7333 -0.00163269ZM14.8908 11.2316C14.8908 11.6463 14.8091 12.0569 14.6504 12.44C14.4918 12.823 14.2592 13.1711 13.966 13.4643C13.6728 13.7575 13.3247 13.9901 12.9416 14.1488C12.5585 14.3075 12.1479 14.3892 11.7333 14.3892H5.26594C4.42865 14.3889 3.62573 14.0562 3.03375 13.464C2.44177 12.8719 2.10922 12.0689 2.10922 11.2316V4.76431C2.10943 3.92702 2.44219 3.1241 3.03432 2.53212C3.62645 1.94014 4.42945 1.60758 5.26674 1.60758H11.7341C12.5713 1.6078 13.3743 1.94056 13.9662 2.53268C14.5582 3.12481 14.8908 3.92782 14.8908 4.76511V11.2316Z" fill="#0D0D0D"/>
<path d="M8.49963 3.8604C7.40286 3.86209 6.3515 4.29859 5.57604 5.07421C4.80057 5.84982 4.36428 6.90126 4.36279 7.99804C4.36407 9.09509 4.80038 10.1469 5.57604 10.9227C6.3517 11.6985 7.40338 12.135 8.50043 12.1365C9.59763 12.1352 10.6495 11.6988 11.4253 10.923C12.2012 10.1471 12.6376 9.09523 12.6389 7.99804C12.6372 6.90099 12.2005 5.84939 11.4245 5.07388C10.6485 4.29837 9.59669 3.86226 8.49963 3.8612V3.8604ZM8.49963 10.5273C7.82905 10.5273 7.18594 10.2609 6.71177 9.78671C6.23759 9.31253 5.97121 8.66942 5.97121 7.99884C5.97121 7.32826 6.23759 6.68515 6.71177 6.21097C7.18594 5.7368 7.82905 5.47042 8.49963 5.47042C9.17021 5.47042 9.81333 5.7368 10.2875 6.21097C10.7617 6.68515 11.0281 7.32826 11.0281 7.99884C11.0281 8.66942 10.7617 9.31253 10.2875 9.78671C9.81333 10.2609 9.17021 10.5273 8.49963 10.5273Z" fill="#0D0D0D"/>
<path d="M12.6461 4.88298C13.1936 4.88298 13.6375 4.43915 13.6375 3.89165C13.6375 3.34415 13.1936 2.90031 12.6461 2.90031C12.0986 2.90031 11.6548 3.34415 11.6548 3.89165C11.6548 4.43915 12.0986 4.88298 12.6461 4.88298Z" fill="#0D0D0D"/>
</svg>
