<svg width="19" height="17" viewBox="0 0 19 17" fill="none" xmlns="http://www.w3.org/2000/svg">
<path d="M12.7001 5.73102C13.9732 5.73102 15.1941 6.23673 16.0943 7.13691C16.9944 8.03708 17.5001 9.25798 17.5001 10.531V16.131H14.3001V10.531C14.3001 10.1067 14.1316 9.69971 13.8315 9.39965C13.5315 9.09959 13.1245 8.93102 12.7001 8.93102C12.2758 8.93102 11.8688 9.09959 11.5688 9.39965C11.2687 9.69971 11.1001 10.1067 11.1001 10.531V16.131H7.90015V10.531C7.90015 9.25798 8.40586 8.03708 9.30603 7.13691C10.2062 6.23673 11.4271 5.73102 12.7001 5.73102Z" stroke="#0D0D0D" stroke-width="1.17057" stroke-linecap="round" stroke-linejoin="round"/>
<path d="M4.7 6.53094H1.5V16.1309H4.7V6.53094Z" stroke="#0D0D0D" stroke-width="1.17057" stroke-linecap="round" stroke-linejoin="round"/>
<path d="M3.1 4.131C3.98366 4.131 4.7 3.41466 4.7 2.531C4.7 1.64734 3.98366 0.931 3.1 0.931C2.21634 0.931 1.5 1.64734 1.5 2.531C1.5 3.41466 2.21634 4.131 3.1 4.131Z" stroke="#0D0D0D" stroke-width="1.17057" stroke-linecap="round" stroke-linejoin="round"/>
</svg>
